<svg xmlns="http://www.w3.org/2000/svg" xmlns:xlink="http://www.w3.org/1999/xlink" preserveAspectRatio="xMidYMid" width="64" height="46" viewBox="0 0 64 46">
  <defs>
    <style>
      .cls-1 {
        fill: #bfbfbf;
        fill-rule: evenodd;
      }
    </style>
  </defs>
  <path d="M59.895,27.988 C57.426,30.849 54.072,32.808 50.390,33.556 C47.484,40.837 40.336,45.998 32.000,45.998 C23.663,45.998 16.515,40.837 13.609,33.556 C9.927,32.809 6.572,30.850 4.104,27.988 C1.458,24.920 -0.000,21.000 -0.000,16.951 C-0.000,7.605 7.636,0.001 17.023,0.001 C22.332,0.001 27.338,2.481 30.552,6.665 C31.030,6.631 31.513,6.612 32.000,6.612 C32.487,6.612 32.970,6.631 33.448,6.665 C36.662,2.481 41.668,0.001 46.976,0.001 C56.363,0.001 64.000,7.605 64.000,16.951 C64.000,21.000 62.542,24.920 59.895,27.988 ZM51.780,26.305 C51.780,26.496 51.777,26.685 51.771,26.875 C53.342,26.119 54.735,24.992 55.796,23.600 C56.428,22.770 56.931,21.870 57.300,20.922 L56.501,20.709 C55.870,20.540 55.496,19.896 55.665,19.268 C55.834,18.641 56.482,18.268 57.112,18.436 L57.908,18.649 C57.994,18.092 58.039,17.525 58.039,16.951 C58.039,16.376 57.994,15.809 57.908,15.252 L57.112,15.464 C57.010,15.492 56.907,15.505 56.806,15.505 C56.284,15.505 55.807,15.158 55.665,14.632 C55.496,14.005 55.870,13.360 56.501,13.192 L57.297,12.979 C56.888,11.924 56.315,10.934 55.588,10.040 L55.008,10.618 C54.777,10.848 54.475,10.963 54.172,10.963 C53.870,10.963 53.568,10.848 53.337,10.618 C52.876,10.159 52.876,9.414 53.337,8.955 L53.918,8.376 C53.021,7.653 52.026,7.083 50.966,6.675 L50.752,7.469 C50.610,7.994 50.133,8.341 49.611,8.341 C49.510,8.341 49.407,8.328 49.305,8.301 C48.675,8.132 48.300,7.487 48.469,6.860 L48.683,6.067 C48.123,5.982 47.553,5.937 46.976,5.937 C46.400,5.937 45.830,5.982 45.271,6.067 L45.485,6.860 C45.654,7.487 45.279,8.132 44.649,8.300 C44.547,8.328 44.444,8.341 44.343,8.341 C43.821,8.341 43.344,7.994 43.202,7.469 L42.988,6.675 C41.948,7.074 40.972,7.632 40.088,8.335 C42.858,9.576 45.290,11.433 47.210,13.730 L49.253,10.553 C49.605,10.006 50.335,9.846 50.885,10.196 C51.434,10.546 51.595,11.274 51.243,11.821 L49.220,14.967 C49.691,15.495 49.979,16.190 49.979,16.951 C49.979,17.247 49.933,17.539 49.847,17.820 C51.085,20.391 51.780,23.269 51.780,26.305 ZM14.152,17.819 C14.067,17.539 14.022,17.246 14.022,16.951 C14.022,16.207 14.296,15.526 14.749,15.002 L12.522,11.830 C12.148,11.297 12.278,10.564 12.813,10.191 C13.348,9.819 14.084,9.949 14.458,10.482 L16.762,13.763 C18.685,11.450 21.129,9.581 23.912,8.335 C23.028,7.632 22.052,7.075 21.012,6.675 L20.798,7.469 C20.657,7.994 20.179,8.341 19.658,8.341 C19.557,8.341 19.454,8.328 19.351,8.301 C18.721,8.132 18.347,7.488 18.516,6.860 L18.729,6.067 C18.170,5.982 17.600,5.937 17.023,5.937 C16.446,5.937 15.877,5.982 15.318,6.067 L15.531,6.860 C15.700,7.487 15.326,8.132 14.695,8.301 C14.593,8.328 14.490,8.341 14.389,8.341 C13.867,8.341 13.390,7.994 13.248,7.469 L13.035,6.675 C11.974,7.082 10.979,7.652 10.082,8.376 L10.663,8.955 C11.125,9.414 11.125,10.159 10.663,10.618 C10.433,10.848 10.130,10.963 9.828,10.963 C9.526,10.963 9.223,10.848 8.992,10.618 L8.411,10.039 C7.684,10.933 7.111,11.923 6.702,12.979 L7.500,13.192 C8.130,13.360 8.504,14.005 8.335,14.632 C8.194,15.158 7.716,15.505 7.195,15.505 C7.093,15.505 6.991,15.492 6.888,15.464 L6.092,15.252 C6.005,15.809 5.960,16.376 5.960,16.951 C5.960,17.525 6.005,18.092 6.091,18.649 L6.888,18.436 C7.518,18.268 8.166,18.640 8.335,19.268 C8.504,19.895 8.130,20.540 7.500,20.709 L6.699,20.922 C7.068,21.870 7.571,22.770 8.203,23.599 C9.264,24.992 10.658,26.119 12.228,26.875 C12.223,26.686 12.220,26.496 12.220,26.306 C12.220,23.268 12.914,20.390 14.152,17.819 ZM17.023,2.354 C8.939,2.354 2.363,8.902 2.363,16.951 C2.363,20.438 3.618,23.814 5.897,26.456 C7.726,28.576 10.119,30.121 12.770,30.921 C12.659,30.463 12.564,29.998 12.486,29.529 C10.058,28.658 7.889,27.080 6.321,25.022 C4.539,22.684 3.597,19.893 3.597,16.951 C3.597,13.381 4.994,10.024 7.530,7.499 C10.066,4.974 13.437,3.584 17.023,3.584 C20.566,3.584 23.899,4.942 26.424,7.410 C26.877,7.277 27.336,7.161 27.801,7.060 C25.043,4.085 21.139,2.354 17.023,2.354 ZM32.000,8.965 C22.396,8.965 14.583,16.744 14.583,26.305 C14.583,35.867 22.396,43.646 32.000,43.646 C41.603,43.646 49.417,35.867 49.417,26.305 C49.417,16.744 41.603,8.965 32.000,8.965 ZM46.976,2.354 C42.860,2.354 38.956,4.085 36.199,7.060 C36.664,7.161 37.123,7.278 37.576,7.410 C40.098,4.944 43.432,3.584 46.976,3.584 C50.549,3.584 53.907,4.964 56.438,7.470 C56.448,7.480 56.460,7.489 56.470,7.499 C56.480,7.509 56.489,7.520 56.499,7.531 C59.016,10.052 60.402,13.395 60.402,16.951 C60.402,19.893 59.460,22.684 57.678,25.022 C56.110,27.080 53.941,28.658 51.513,29.529 C51.435,29.998 51.341,30.463 51.230,30.921 C53.880,30.121 56.273,28.575 58.102,26.456 C60.382,23.814 61.637,20.438 61.637,16.951 C61.637,8.902 55.060,2.354 46.976,2.354 ZM32.000,42.664 C22.939,42.664 15.568,35.326 15.568,26.305 C15.568,17.285 22.939,9.947 32.000,9.947 C41.060,9.947 48.431,17.285 48.431,26.305 C48.431,35.326 41.060,42.664 32.000,42.664 ZM43.866,21.922 L45.223,21.560 C44.650,19.984 43.801,18.539 42.734,17.282 L41.746,18.266 C41.515,18.495 41.213,18.610 40.910,18.610 C40.608,18.610 40.306,18.495 40.075,18.266 C39.614,17.806 39.614,17.061 40.075,16.602 L41.063,15.619 C39.801,14.556 38.349,13.711 36.766,13.141 L36.403,14.491 C36.261,15.017 35.784,15.363 35.262,15.363 C35.161,15.363 35.058,15.350 34.956,15.323 C34.325,15.155 33.951,14.510 34.120,13.882 L34.484,12.530 C33.678,12.387 32.847,12.312 32.000,12.312 C31.153,12.312 30.323,12.387 29.516,12.530 L29.880,13.882 C30.049,14.510 29.675,15.155 29.045,15.323 C28.942,15.350 28.839,15.363 28.738,15.363 C28.216,15.363 27.739,15.017 27.597,14.491 L27.234,13.140 C25.651,13.710 24.199,14.556 22.937,15.618 L23.925,16.602 C24.387,17.061 24.387,17.806 23.925,18.266 C23.694,18.495 23.392,18.610 23.090,18.610 C22.787,18.610 22.485,18.495 22.254,18.266 L21.266,17.282 C20.199,18.538 19.349,19.983 18.777,21.560 L20.134,21.922 C20.764,22.090 21.138,22.735 20.969,23.362 C20.828,23.888 20.350,24.235 19.829,24.235 C19.728,24.235 19.625,24.222 19.522,24.195 L18.164,23.832 C18.020,24.635 17.944,25.462 17.944,26.305 C17.944,27.149 18.020,27.975 18.164,28.779 L19.522,28.416 C20.152,28.248 20.800,28.620 20.969,29.248 C21.138,29.875 20.764,30.520 20.134,30.689 L18.777,31.051 C20.733,36.438 25.922,40.299 32.000,40.299 C38.078,40.299 43.266,36.438 45.223,31.051 L43.866,30.689 C43.236,30.521 42.862,29.876 43.031,29.248 C43.199,28.621 43.848,28.248 44.477,28.417 L45.835,28.779 C45.980,27.976 46.055,27.149 46.055,26.306 C46.055,25.462 45.980,24.635 45.835,23.832 L44.478,24.195 C44.375,24.222 44.272,24.235 44.171,24.235 C43.649,24.235 43.172,23.888 43.031,23.363 C42.862,22.735 43.236,22.090 43.866,21.922 ZM35.084,36.904 L28.915,36.904 C28.262,36.904 27.733,36.377 27.733,35.727 C27.733,35.078 28.262,34.551 28.915,34.551 L35.084,34.551 C35.737,34.551 36.266,35.078 36.266,35.727 C36.266,36.377 35.737,36.904 35.084,36.904 ZM34.672,28.456 L35.044,29.073 C35.380,29.630 35.198,30.353 34.639,30.687 C34.449,30.800 34.239,30.855 34.032,30.855 C33.631,30.855 33.239,30.650 33.018,30.283 L32.646,29.665 C32.435,29.705 32.221,29.727 32.006,29.727 C31.726,29.727 31.444,29.693 31.166,29.623 C30.276,29.401 29.526,28.848 29.054,28.064 C28.582,27.281 28.445,26.362 28.667,25.475 C28.791,24.985 29.016,24.537 29.327,24.155 L25.893,18.455 C25.557,17.898 25.739,17.176 26.298,16.841 C26.858,16.507 27.584,16.688 27.919,17.245 L31.354,22.946 C32.729,22.686 34.185,23.283 34.945,24.546 C35.417,25.330 35.554,26.249 35.332,27.136 C35.208,27.626 34.983,28.074 34.672,28.456 ZM32.919,25.756 C32.772,25.512 32.538,25.339 32.260,25.270 C32.173,25.248 32.085,25.238 31.998,25.238 C31.806,25.238 31.617,25.289 31.448,25.390 C31.203,25.537 31.029,25.770 30.960,26.046 C30.890,26.323 30.933,26.610 31.080,26.854 C31.228,27.099 31.462,27.272 31.739,27.341 C32.017,27.410 32.305,27.367 32.551,27.221 C32.797,27.074 32.970,26.841 33.040,26.564 C33.109,26.288 33.066,26.001 32.919,25.756 Z" class="cls-1"/>
</svg>
