<svg xmlns="http://www.w3.org/2000/svg" xmlns:xlink="http://www.w3.org/1999/xlink" preserveAspectRatio="xMidYMid" width="64" height="60" viewBox="0 0 64 60">
  <defs>
    <style>
      .cls-1 {
        fill: #bfbfbf;
        fill-rule: evenodd;
      }
    </style>
  </defs>
  <path d="M62.678,9.776 L59.704,9.776 L59.704,9.319 C59.704,8.589 59.112,7.997 58.382,7.997 L51.552,7.997 C50.822,7.997 50.230,8.589 50.230,9.319 L50.230,9.776 L39.479,9.776 L36.680,2.649 L36.928,2.551 C37.608,2.284 37.943,1.517 37.676,0.838 C37.409,0.158 36.641,-0.176 35.962,0.091 L20.443,6.185 C19.763,6.452 19.429,7.220 19.696,7.899 C19.900,8.420 20.399,8.738 20.926,8.738 C21.087,8.738 21.251,8.708 21.409,8.646 L21.658,8.549 L22.207,9.946 C9.723,11.392 -0.000,22.025 -0.000,34.889 C-0.000,48.736 11.267,60.001 25.115,60.001 C38.963,60.001 50.230,48.736 50.230,34.889 C50.230,31.580 49.605,28.391 48.370,25.384 L50.230,25.384 L50.230,25.840 C50.230,26.570 50.822,27.162 51.552,27.162 L58.382,27.162 C59.112,27.162 59.704,26.570 59.704,25.840 L59.704,25.384 L62.678,25.384 C63.408,25.384 64.000,24.792 64.000,24.062 L64.000,11.098 C64.000,10.368 63.408,9.776 62.678,9.776 ZM24.119,7.582 L34.219,3.615 L36.639,9.776 L25.115,9.776 C25.070,9.776 25.026,9.778 24.981,9.778 L24.119,7.582 ZM25.115,22.739 L25.115,22.739 C25.115,22.739 25.115,22.739 25.115,22.739 C18.415,22.739 12.964,28.190 12.964,34.889 C12.964,41.588 18.415,47.038 25.115,47.038 C31.815,47.038 37.266,41.588 37.266,34.889 C37.266,31.043 35.467,27.611 32.669,25.383 L45.481,25.383 C46.877,28.363 47.586,31.557 47.586,34.889 C47.586,47.278 37.506,57.358 25.115,57.358 C12.724,57.358 2.644,47.278 2.644,34.889 C2.644,22.499 12.724,12.420 25.115,12.420 L50.230,12.420 L50.230,22.740 L25.115,22.739 ZM27.938,34.889 C27.938,36.445 26.672,37.711 25.115,37.711 C23.558,37.711 22.292,36.445 22.292,34.889 C22.292,33.332 23.558,32.066 25.115,32.066 C26.672,32.066 27.938,33.332 27.938,34.889 ZM26.437,29.585 L26.437,25.477 C27.218,25.586 27.968,25.790 28.676,26.078 L26.622,29.635 C26.561,29.618 26.499,29.600 26.437,29.585 ZM23.793,29.585 C23.731,29.600 23.669,29.618 23.608,29.635 L21.554,26.078 C22.262,25.790 23.013,25.586 23.793,25.477 L23.793,29.585 L23.793,29.585 ZM19.266,27.403 L21.320,30.960 C21.274,31.004 21.230,31.049 21.185,31.094 L17.629,29.041 C18.106,28.431 18.656,27.881 19.266,27.403 ZM16.303,31.328 L19.861,33.382 C19.843,33.443 19.826,33.505 19.811,33.567 L15.702,33.567 C15.811,32.786 16.016,32.036 16.303,31.328 ZM19.811,36.211 C19.826,36.273 19.843,36.334 19.861,36.395 L16.303,38.450 C16.016,37.741 15.812,36.991 15.702,36.211 L19.811,36.211 ZM21.185,38.684 C21.230,38.729 21.274,38.774 21.320,38.818 L19.266,42.374 C18.656,41.897 18.106,41.346 17.629,40.737 L21.185,38.684 ZM23.608,40.142 C23.669,40.160 23.731,40.177 23.793,40.192 L23.793,44.300 C23.012,44.191 22.262,43.987 21.554,43.700 L23.608,40.142 ZM26.437,40.192 C26.499,40.177 26.561,40.160 26.622,40.142 L28.676,43.700 C27.968,43.987 27.218,44.191 26.437,44.300 L26.437,40.192 L26.437,40.192 ZM30.964,42.374 L28.910,38.818 C28.956,38.774 29.000,38.729 29.045,38.684 L32.601,40.737 C32.124,41.347 31.574,41.897 30.964,42.374 ZM33.927,38.450 L30.369,36.396 C30.387,36.334 30.404,36.273 30.419,36.211 L34.528,36.211 C34.418,36.991 34.214,37.741 33.927,38.450 ZM30.419,33.567 C30.404,33.505 30.387,33.443 30.369,33.382 L33.927,31.328 C34.214,32.036 34.418,32.786 34.528,33.567 L30.419,33.567 ZM29.045,31.094 C29.001,31.048 28.956,31.003 28.910,30.959 L30.964,27.403 C31.574,27.881 32.124,28.431 32.601,29.041 L29.045,31.094 ZM57.060,24.518 L52.874,24.518 L52.874,10.641 L57.060,10.641 L57.060,24.518 ZM61.356,22.740 L59.704,22.740 L59.704,12.420 L61.356,12.420 L61.356,22.740 Z" class="cls-1"/>
</svg>
