<svg xmlns="http://www.w3.org/2000/svg" xmlns:xlink="http://www.w3.org/1999/xlink" preserveAspectRatio="xMidYMid" width="64" height="64" viewBox="0 0 64 64">
  <defs>
    <style>
      .cls-1 {
        fill: #bfbfbf;
        fill-rule: evenodd;
      }
    </style>
  </defs>
  <path d="M54.628,54.628 C48.584,60.672 40.548,64.000 32.000,64.000 C23.453,64.000 15.417,60.672 9.373,54.628 C3.328,48.584 -0.000,40.548 -0.000,32.000 C-0.000,23.453 3.329,15.417 9.373,9.373 C15.417,3.329 23.453,0.000 32.000,0.000 C40.548,0.000 48.583,3.329 54.628,9.373 C60.671,15.417 64.000,23.453 64.000,32.000 C64.000,40.548 60.671,48.584 54.628,54.628 ZM32.000,2.554 C15.763,2.554 2.554,15.764 2.554,32.000 C2.554,48.237 15.763,61.446 32.000,61.446 C48.237,61.446 61.446,48.236 61.446,32.000 C61.446,15.763 48.237,2.554 32.000,2.554 ZM32.000,58.590 C17.338,58.590 5.410,46.662 5.410,32.000 C5.410,17.338 17.338,5.411 32.000,5.411 C46.662,5.411 58.590,17.338 58.590,32.000 C58.590,46.662 46.662,58.590 32.000,58.590 ZM55.842,35.056 C45.787,37.090 38.093,45.371 36.799,55.554 C46.783,53.523 54.539,45.283 55.842,35.056 ZM29.812,55.935 C30.533,56.001 31.262,56.036 32.000,56.036 C32.737,56.036 33.466,56.001 34.186,55.935 C34.267,55.125 34.384,54.325 34.537,53.537 L29.461,53.537 C29.614,54.325 29.731,55.125 29.812,55.935 ZM35.166,50.983 C37.560,42.988 43.622,36.531 51.461,33.649 L49.272,24.359 C43.652,22.990 37.847,22.294 32.000,22.294 C26.156,22.294 20.350,22.990 14.728,24.358 L12.539,33.650 C20.377,36.532 26.438,42.990 28.832,50.983 L35.166,50.983 ZM27.199,55.554 C25.904,45.372 18.212,37.091 8.158,35.056 C9.461,45.283 17.216,53.522 27.199,55.554 ZM7.964,32.000 C7.964,32.141 7.967,32.282 7.970,32.423 C8.689,32.549 9.398,32.704 10.095,32.886 L11.930,25.097 C10.846,25.407 9.765,25.744 8.697,26.105 C8.219,27.992 7.964,29.967 7.964,32.000 ZM32.000,7.965 C21.887,7.965 13.214,14.243 9.671,23.106 C10.892,22.727 12.122,22.379 13.348,22.067 C19.408,20.524 25.684,19.741 32.000,19.741 C38.320,19.741 44.595,20.524 50.652,22.069 C51.879,22.380 53.109,22.728 54.329,23.106 C50.786,14.243 42.113,7.965 32.000,7.965 ZM52.070,25.098 L53.905,32.885 C54.602,32.703 55.311,32.548 56.030,32.423 C56.033,32.282 56.036,32.141 56.036,32.000 C56.036,29.967 55.781,27.992 55.303,26.105 C54.236,25.745 53.155,25.408 52.070,25.098 ZM32.000,24.738 C36.004,24.738 39.262,27.996 39.262,32.000 C39.262,36.005 36.004,39.262 32.000,39.262 C27.996,39.262 24.738,36.005 24.738,32.000 C24.738,27.996 27.996,24.738 32.000,24.738 ZM32.000,36.708 C34.596,36.708 36.708,34.596 36.708,32.000 C36.708,29.404 34.596,27.292 32.000,27.292 C29.404,27.292 27.292,29.404 27.292,32.000 C27.292,34.596 29.404,36.708 32.000,36.708 Z" class="cls-1"/>
</svg>
