<svg xmlns="http://www.w3.org/2000/svg" xmlns:xlink="http://www.w3.org/1999/xlink" preserveAspectRatio="xMidYMid" width="56.031" height="50.031" viewBox="0 0 56.031 50.031">
  <defs>
    <style>
      .cls-1 {
        fill: #bfbfbf;
        fill-rule: evenodd;
      }
    </style>
  </defs>
  <path d="M55.438,13.972 L46.059,19.864 C45.467,20.236 44.685,20.058 44.312,19.468 C43.940,18.877 44.117,18.097 44.709,17.725 L52.297,12.959 L34.280,2.742 L23.534,9.493 L42.199,20.077 C42.247,20.104 42.294,20.135 42.339,20.169 C42.348,20.175 42.356,20.182 42.365,20.188 C42.398,20.215 42.431,20.243 42.462,20.273 C42.469,20.280 42.476,20.286 42.483,20.292 C42.519,20.329 42.553,20.367 42.585,20.408 C42.589,20.413 42.592,20.418 42.596,20.423 C42.617,20.451 42.637,20.479 42.656,20.508 C42.660,20.516 42.664,20.524 42.668,20.531 C42.677,20.545 42.684,20.559 42.692,20.573 C42.710,20.605 42.726,20.638 42.741,20.671 C42.747,20.684 42.752,20.696 42.758,20.709 C42.776,20.755 42.793,20.802 42.806,20.849 C42.806,20.850 42.806,20.850 42.806,20.851 C42.820,20.901 42.830,20.952 42.837,21.003 C42.839,21.013 42.839,21.023 42.841,21.034 C42.846,21.076 42.848,21.118 42.849,21.160 C42.849,21.167 42.851,21.174 42.851,21.182 L42.851,36.348 C42.851,36.783 42.627,37.187 42.259,37.418 L35.669,41.557 C35.463,41.687 35.229,41.752 34.994,41.752 C34.783,41.752 34.572,41.700 34.381,41.594 C33.978,41.372 33.727,40.948 33.727,40.488 L33.727,26.057 L14.511,15.161 L3.764,21.912 L21.781,32.128 L30.518,26.640 C31.110,26.268 31.892,26.445 32.265,27.036 C32.638,27.627 32.460,28.407 31.868,28.779 L22.489,34.670 C22.283,34.799 22.049,34.864 21.814,34.864 C21.599,34.864 21.383,34.810 21.188,34.699 L0.672,23.066 C0.285,22.846 0.042,22.440 0.032,21.996 C0.021,21.551 0.246,21.134 0.623,20.898 L13.803,12.618 C13.806,12.616 13.809,12.615 13.812,12.613 L20.393,8.478 C20.396,8.477 20.399,8.475 20.401,8.473 L33.572,0.200 C33.967,-0.048 34.467,-0.059 34.873,0.171 L55.389,11.804 C55.777,12.024 56.020,12.430 56.030,12.874 C56.040,13.319 55.815,13.736 55.438,13.972 ZM16.944,13.633 L35.620,24.223 C36.016,24.447 36.261,24.867 36.261,25.321 L36.261,38.199 L40.317,35.651 L40.317,23.471 L38.890,24.367 C38.681,24.499 38.447,24.562 38.216,24.562 C37.795,24.562 37.384,24.353 37.143,23.971 C36.770,23.381 36.948,22.600 37.540,22.228 L39.118,21.237 L21.101,11.021 L16.944,13.633 ZM1.924,25.924 L21.781,37.184 L30.518,31.695 C31.110,31.323 31.892,31.500 32.265,32.091 C32.638,32.682 32.460,33.462 31.868,33.834 L22.489,39.726 C22.283,39.855 22.049,39.920 21.814,39.920 C21.598,39.920 21.382,39.865 21.188,39.755 L0.672,28.121 C0.064,27.776 -0.149,27.005 0.197,26.398 C0.542,25.791 1.316,25.579 1.924,25.924 ZM1.924,30.980 L21.781,42.239 L30.518,36.751 C31.110,36.379 31.892,36.556 32.265,37.147 C32.638,37.738 32.460,38.518 31.868,38.890 L22.489,44.781 C22.283,44.910 22.049,44.976 21.814,44.976 C21.598,44.976 21.382,44.921 21.188,44.810 L0.672,33.177 C0.064,32.832 -0.149,32.061 0.197,31.454 C0.542,30.846 1.316,30.635 1.924,30.980 ZM1.924,36.035 L21.781,47.295 L30.518,41.806 C31.110,41.434 31.892,41.611 32.265,42.202 C32.638,42.793 32.460,43.573 31.868,43.945 L22.489,49.837 C22.283,49.966 22.049,50.031 21.814,50.031 C21.598,50.031 21.382,49.976 21.188,49.866 L0.672,38.232 C0.064,37.887 -0.149,37.116 0.197,36.509 C0.542,35.902 1.316,35.690 1.924,36.035 ZM54.088,16.889 C54.680,16.517 55.463,16.694 55.835,17.285 C56.208,17.876 56.031,18.656 55.438,19.028 L46.060,24.919 C45.850,25.051 45.616,25.114 45.386,25.114 C44.965,25.114 44.553,24.905 44.312,24.523 C43.940,23.933 44.117,23.152 44.710,22.780 L54.088,16.889 ZM54.088,21.944 C54.680,21.572 55.463,21.750 55.835,22.341 C56.208,22.931 56.031,23.711 55.438,24.083 L46.060,29.975 C45.850,30.106 45.616,30.169 45.386,30.169 C44.965,30.169 44.553,29.960 44.312,29.579 C43.940,28.988 44.117,28.207 44.710,27.836 L54.088,21.944 ZM54.088,27.000 C54.680,26.628 55.463,26.805 55.835,27.396 C56.208,27.987 56.031,28.767 55.438,29.139 L46.060,35.030 C45.850,35.162 45.616,35.225 45.386,35.225 C44.965,35.225 44.553,35.016 44.312,34.634 C43.940,34.044 44.117,33.263 44.710,32.891 L54.088,27.000 Z" class="cls-1"/>
</svg>
