<svg xmlns="http://www.w3.org/2000/svg" xmlns:xlink="http://www.w3.org/1999/xlink" preserveAspectRatio="xMidYMid" width="64" height="58" viewBox="0 0 64 58">
  <defs>
    <style>
      .cls-1 {
        fill: #bfbfbf;
        fill-rule: evenodd;
      }
    </style>
  </defs>
  <path d="M61.153,29.379 L57.884,29.771 L61.010,32.877 C62.530,34.386 63.257,36.549 62.955,38.662 L61.886,46.152 C61.611,48.077 60.606,49.755 59.177,50.929 L59.177,54.330 C59.177,56.353 57.521,57.999 55.484,57.999 L49.361,57.999 C47.324,57.999 45.668,56.353 45.668,54.330 L45.668,52.678 L18.333,52.678 L18.333,54.330 C18.333,56.353 16.676,57.999 14.640,57.999 L8.515,57.999 C6.479,57.999 4.822,56.353 4.822,54.330 L4.822,50.928 C3.394,49.755 2.389,48.077 2.114,46.152 L1.045,38.662 C0.743,36.549 1.470,34.386 2.990,32.876 L6.116,29.771 L2.847,29.378 C1.224,29.184 0.000,27.812 0.000,26.188 C0.000,24.416 1.451,22.974 3.235,22.974 L5.512,22.974 C6.903,22.974 8.091,23.851 8.547,25.077 L11.732,18.154 C12.913,15.583 15.274,13.670 18.048,13.039 C18.177,13.009 18.317,12.981 18.466,12.953 C18.733,5.766 24.701,0.001 32.000,0.001 C39.299,0.001 45.266,5.766 45.533,12.953 C45.682,12.981 45.822,13.009 45.950,13.038 C48.724,13.670 51.086,15.582 52.267,18.154 L55.452,25.078 C55.907,23.851 57.096,22.974 58.488,22.974 L60.765,22.974 C62.549,22.974 64.000,24.416 64.000,26.188 C64.000,27.812 62.776,29.184 61.153,29.379 ZM60.334,39.707 L48.983,39.707 L50.227,43.663 L59.769,43.663 L60.334,39.707 ZM48.115,54.330 C48.115,55.012 48.674,55.567 49.361,55.567 L55.484,55.567 C56.171,55.567 56.730,55.012 56.730,54.330 L56.730,54.330 L56.730,52.285 C55.968,52.540 55.157,52.678 54.319,52.678 L48.115,52.678 L48.115,54.330 ZM7.270,54.330 C7.270,55.012 7.829,55.567 8.515,55.567 L14.640,55.567 C15.327,55.567 15.886,55.012 15.886,54.330 L15.886,52.678 L9.681,52.678 C8.844,52.678 8.032,52.539 7.270,52.285 L7.270,54.330 ZM9.681,50.246 L54.319,50.246 C56.793,50.246 58.932,48.480 59.413,46.094 L4.588,46.094 C5.068,48.480 7.207,50.246 9.681,50.246 ZM47.663,43.663 L46.419,39.707 L44.724,39.707 L45.968,43.663 L47.663,43.663 ZM43.403,43.663 L42.159,39.707 L21.841,39.707 L20.596,43.663 L43.403,43.663 ZM19.276,39.707 L17.581,39.707 L16.337,43.663 L18.032,43.663 L19.276,39.707 ZM4.231,43.663 L13.773,43.663 L15.017,39.707 L3.666,39.707 L4.231,43.663 ZM6.300,26.188 C6.300,25.757 5.946,25.406 5.512,25.406 L3.235,25.406 C2.801,25.406 2.448,25.757 2.448,26.188 C2.448,26.583 2.746,26.917 3.141,26.964 L6.300,27.344 L6.300,26.188 ZM18.599,15.408 C18.598,15.408 18.596,15.408 18.595,15.409 C17.544,15.648 16.575,16.139 15.763,16.817 C16.516,16.687 17.532,16.571 18.799,16.471 C18.718,16.122 18.652,15.767 18.599,15.408 ZM32.000,2.432 C25.882,2.432 20.904,7.377 20.904,13.455 C20.904,19.534 25.881,24.478 32.000,24.478 C38.119,24.478 43.096,19.533 43.096,13.455 C43.096,7.377 38.119,2.432 32.000,2.432 ZM45.405,15.409 C45.404,15.409 45.402,15.408 45.401,15.408 C45.348,15.767 45.282,16.122 45.201,16.472 C46.465,16.571 47.481,16.687 48.237,16.817 C47.424,16.139 46.456,15.648 45.405,15.409 ZM50.459,20.071 C49.702,19.690 48.883,19.413 48.019,19.248 C47.238,19.099 45.998,18.963 44.406,18.851 C42.309,23.591 37.538,26.910 32.000,26.910 C26.462,26.910 21.691,23.591 19.594,18.850 C17.998,18.964 16.759,19.100 15.982,19.248 C15.118,19.414 14.299,19.690 13.542,20.071 L9.760,28.295 L54.241,28.295 L50.459,20.071 ZM55.385,30.727 L8.615,30.727 L4.720,34.596 C3.993,35.318 3.548,36.274 3.448,37.276 L60.552,37.276 C60.452,36.274 60.007,35.318 59.280,34.596 L55.385,30.727 ZM60.765,25.406 L58.488,25.406 C58.054,25.406 57.701,25.757 57.701,26.188 L57.701,26.188 L57.701,27.344 L60.859,26.964 C61.255,26.917 61.552,26.583 61.552,26.188 C61.552,25.757 61.199,25.406 60.765,25.406 ZM32.176,20.367 C32.025,20.825 31.616,21.151 31.133,21.198 C31.093,21.202 31.053,21.204 31.013,21.204 C30.574,21.204 30.165,20.969 29.947,20.584 L26.275,14.100 C25.944,13.515 26.153,12.774 26.742,12.445 C27.331,12.115 28.077,12.323 28.409,12.908 L30.718,16.986 L34.338,6.033 C34.549,5.396 35.241,5.048 35.882,5.258 C36.525,5.467 36.874,6.154 36.664,6.792 L32.176,20.367 Z" class="cls-1"/>
</svg>
