<svg xmlns="http://www.w3.org/2000/svg" xmlns:xlink="http://www.w3.org/1999/xlink" preserveAspectRatio="xMidYMid" width="53" height="64" viewBox="0 0 53 64">
  <defs>
    <style>
      .cls-1 {
        fill: #bfbfbf;
        fill-rule: evenodd;
      }
    </style>
  </defs>
  <path d="M51.639,42.483 L32.850,42.483 L32.850,46.369 C32.850,47.121 32.241,47.730 31.490,47.730 L30.003,47.730 L30.003,62.638 C30.003,63.390 29.394,64.000 28.642,64.000 C27.891,64.000 27.281,63.390 27.281,62.638 L27.281,47.730 L25.719,47.730 L25.719,62.638 C25.719,63.390 25.110,64.000 24.359,64.000 C23.607,64.000 22.998,63.390 22.998,62.638 L22.998,47.730 L21.510,47.730 C20.759,47.730 20.150,47.121 20.150,46.369 L20.150,42.483 L1.361,42.483 C0.610,42.483 0.000,41.873 0.000,41.121 L0.000,35.821 C0.000,35.068 0.610,34.459 1.361,34.459 L4.701,34.459 C4.666,34.267 4.647,34.071 4.647,33.869 L4.647,31.347 C3.522,30.360 2.735,28.986 2.513,27.420 L1.669,21.463 C1.414,19.660 2.029,17.815 3.316,16.527 L5.211,14.630 L3.436,14.416 C1.956,14.237 0.840,12.977 0.840,11.486 C0.840,9.859 2.163,8.535 3.789,8.535 L5.587,8.535 C6.554,8.535 7.411,9.006 7.950,9.728 L10.139,4.931 C11.123,2.776 13.088,1.172 15.396,0.643 C19.132,-0.214 33.868,-0.214 37.603,0.643 C39.912,1.172 41.877,2.776 42.861,4.932 L45.050,9.728 C45.588,9.006 46.446,8.535 47.413,8.535 L49.211,8.535 C50.837,8.535 52.160,9.859 52.160,11.486 C52.160,12.977 51.044,14.237 49.565,14.416 L47.789,14.630 L49.684,16.527 C50.971,17.815 51.586,19.660 51.331,21.463 L50.487,27.420 C50.265,28.986 49.478,30.360 48.352,31.347 L48.352,33.869 C48.352,34.071 48.333,34.267 48.299,34.459 L51.639,34.459 C52.390,34.459 53.000,35.068 53.000,35.821 L53.000,41.121 C53.000,41.873 52.390,42.483 51.639,42.483 ZM22.871,45.007 L30.129,45.007 L30.129,42.483 L22.871,42.483 L22.871,45.007 ZM4.918,24.991 L11.819,24.991 L12.555,22.634 L4.584,22.634 L4.918,24.991 ZM8.879,30.227 L44.121,30.227 C45.720,30.227 47.123,29.185 47.629,27.714 L5.372,27.714 C5.877,29.185 7.280,30.227 8.879,30.227 ZM7.369,32.767 L7.369,33.869 C7.369,34.194 7.633,34.459 7.958,34.459 L12.794,34.459 C13.118,34.459 13.382,34.194 13.382,33.869 L13.382,32.951 L8.878,32.951 C8.361,32.951 7.855,32.886 7.369,32.767 ZM16.051,34.459 L36.950,34.459 C36.915,34.267 36.896,34.071 36.896,33.869 L36.896,32.951 L16.104,32.951 L16.104,33.869 C16.104,34.071 16.085,34.267 16.051,34.459 ZM39.618,32.951 L39.618,33.869 C39.618,34.194 39.882,34.459 40.207,34.459 L45.041,34.459 C45.366,34.459 45.630,34.194 45.630,33.869 L45.630,33.869 L45.630,32.767 C45.144,32.886 44.639,32.951 44.121,32.951 L39.618,32.951 ZM38.329,24.991 L37.594,22.634 L15.406,22.634 L14.670,24.991 L38.329,24.991 ZM5.814,11.486 C5.814,11.361 5.712,11.259 5.587,11.259 L3.789,11.259 C3.664,11.259 3.562,11.361 3.562,11.486 C3.562,11.601 3.648,11.698 3.762,11.712 L5.814,11.960 L5.814,11.486 ZM40.385,6.063 C39.751,4.673 38.484,3.639 36.995,3.298 C33.660,2.533 19.340,2.533 16.005,3.298 C14.516,3.639 13.249,4.673 12.615,6.063 L9.554,12.767 L43.446,12.767 L40.385,6.063 ZM49.238,11.712 C49.352,11.698 49.438,11.601 49.438,11.486 C49.438,11.361 49.336,11.259 49.211,11.259 L47.413,11.259 C47.288,11.259 47.186,11.361 47.186,11.486 L47.186,11.486 L47.186,11.960 L49.238,11.712 ZM47.759,18.453 L44.800,15.492 L8.200,15.492 L5.241,18.453 C4.837,18.857 4.558,19.365 4.425,19.910 L48.575,19.910 C48.442,19.365 48.163,18.857 47.759,18.453 ZM48.416,22.634 L40.446,22.634 L41.181,24.990 L48.082,24.990 L48.416,22.634 ZM50.278,37.182 L2.722,37.182 L2.722,39.759 L50.278,39.759 L50.278,37.182 ZM7.595,44.428 C7.838,44.007 8.287,43.747 8.774,43.747 C9.260,43.747 9.709,44.007 9.952,44.428 L15.135,53.413 C15.379,53.834 15.379,54.353 15.135,54.774 C14.892,55.196 14.443,55.455 13.957,55.455 L12.629,55.455 L12.629,62.638 C12.629,63.390 12.020,64.000 11.268,64.000 C10.517,64.000 9.907,63.390 9.907,62.638 L9.907,54.094 C9.907,53.341 10.517,52.732 11.268,52.732 L11.600,52.732 L8.774,47.833 L5.947,52.732 L6.279,52.732 C7.030,52.732 7.640,53.341 7.640,54.094 L7.640,62.638 C7.640,63.390 7.030,64.000 6.279,64.000 C5.527,64.000 4.918,63.390 4.918,62.638 L4.918,55.455 L3.590,55.455 C3.104,55.455 2.655,55.196 2.412,54.774 C2.168,54.353 2.168,53.834 2.412,53.413 L7.595,44.428 ZM43.202,44.428 C43.445,44.007 43.895,43.747 44.381,43.747 C44.867,43.747 45.317,44.007 45.559,44.428 L50.743,53.413 C50.986,53.834 50.986,54.353 50.743,54.774 C50.500,55.196 50.051,55.455 49.564,55.455 L48.237,55.455 L48.237,62.638 C48.237,63.390 47.627,64.000 46.876,64.000 C46.124,64.000 45.515,63.390 45.515,62.638 L45.515,54.094 C45.515,53.341 46.124,52.732 46.876,52.732 L47.207,52.732 L44.381,47.833 L41.555,52.732 L41.886,52.732 C42.638,52.732 43.247,53.341 43.247,54.094 L43.247,62.638 C43.247,63.390 42.638,64.000 41.886,64.000 C41.135,64.000 40.525,63.390 40.525,62.638 L40.525,55.455 L39.197,55.455 C38.711,55.455 38.262,55.196 38.019,54.774 C37.776,54.353 37.776,53.834 38.019,53.413 L43.202,44.428 Z" class="cls-1"/>
</svg>
