<svg xmlns="http://www.w3.org/2000/svg" xmlns:xlink="http://www.w3.org/1999/xlink" preserveAspectRatio="xMidYMid" width="64" height="55.031" viewBox="0 0 64 55.031">
  <defs>
    <style>
      .cls-1 {
        fill: #bfbfbf;
        fill-rule: evenodd;
      }
    </style>
  </defs>
  <path d="M60.866,19.298 C60.184,19.976 59.533,20.486 58.876,20.857 C58.385,21.133 56.190,22.075 56.190,22.075 L48.105,25.457 C45.995,26.340 44.104,27.604 42.485,29.214 L42.142,29.555 L61.357,48.665 C61.589,48.895 61.719,49.207 61.719,49.532 C61.719,49.857 61.589,50.169 61.357,50.400 L57.062,54.672 C56.821,54.911 56.505,55.031 56.190,55.031 C55.874,55.031 55.558,54.911 55.318,54.672 L36.103,35.561 L18.217,53.350 C17.306,54.256 16.109,54.709 14.913,54.709 C13.717,54.709 12.520,54.257 11.609,53.350 C10.727,52.473 10.241,51.306 10.241,50.065 C10.241,48.824 10.727,47.657 11.609,46.779 L29.496,28.990 L18.609,18.163 L17.928,18.840 C17.451,19.314 16.680,19.320 16.196,18.852 C15.760,18.431 14.802,18.633 14.147,19.285 C13.491,19.937 13.287,20.890 13.711,21.324 C14.181,21.805 14.176,22.572 13.699,23.046 L10.053,26.672 C9.812,26.912 9.497,27.031 9.181,27.031 C8.866,27.031 8.550,26.912 8.309,26.672 L0.361,18.768 C-0.120,18.288 -0.120,17.512 0.361,17.032 L4.007,13.407 C4.485,12.932 5.259,12.927 5.742,13.398 C6.178,13.823 7.137,13.622 7.795,12.968 C8.452,12.314 8.654,11.360 8.227,10.927 C7.754,10.446 7.758,9.677 8.236,9.201 L15.726,1.751 C16.208,1.272 16.989,1.272 17.470,1.751 L18.144,2.421 C21.401,-0.136 25.914,-0.712 29.739,1.036 C31.321,1.758 32.676,2.806 33.766,4.150 C34.091,4.552 34.129,5.113 33.860,5.555 C33.592,5.997 33.074,6.224 32.565,6.124 C30.258,5.669 27.085,5.818 24.604,8.846 L25.418,9.656 C25.900,10.135 25.900,10.912 25.418,11.391 L24.648,12.156 L35.477,22.926 C37.381,20.637 38.663,17.916 39.211,14.967 L40.382,8.666 C40.448,8.310 40.669,8.001 40.986,7.822 C41.302,7.643 41.682,7.613 42.023,7.738 L47.112,9.611 C48.308,5.675 51.697,2.742 55.867,2.160 C56.296,2.100 56.726,2.269 56.998,2.605 C57.271,2.940 57.346,3.394 57.196,3.798 L54.098,12.183 L56.297,12.993 L59.243,5.100 C59.394,4.695 59.747,4.400 60.173,4.321 C60.599,4.241 61.036,4.391 61.323,4.714 C65.062,8.919 64.861,15.325 60.866,19.298 ZM56.190,52.069 L58.741,49.532 L40.398,31.290 L37.847,33.827 L56.190,52.069 ZM4.879,16.009 L2.978,17.900 L9.181,24.069 L11.082,22.179 L4.879,16.009 ZM9.539,14.703 C9.093,15.146 8.592,15.482 8.069,15.713 L11.387,19.012 C11.619,18.493 11.956,17.993 12.402,17.550 C12.900,17.055 13.468,16.692 14.057,16.462 L10.634,13.057 C10.403,13.643 10.037,14.207 9.539,14.703 ZM16.598,4.354 L10.985,9.937 L17.188,16.106 L22.802,10.523 L16.598,4.354 ZM29.290,3.556 C29.101,3.453 28.908,3.356 28.710,3.266 C25.817,1.944 22.421,2.327 19.904,4.171 L22.854,7.106 C24.586,5.078 26.784,3.871 29.290,3.556 ZM22.904,13.891 L20.353,16.428 L31.240,27.255 L33.791,24.718 L22.904,13.891 ZM49.433,10.466 L51.785,11.332 L54.052,5.196 C51.819,6.165 50.110,8.087 49.433,10.466 ZM60.718,8.197 L58.181,14.996 C57.944,15.631 57.234,15.955 56.596,15.720 L42.542,10.545 L41.637,15.413 C40.896,19.403 38.980,23.028 36.095,25.897 L13.354,48.514 C12.494,49.369 12.494,50.760 13.354,51.616 C13.770,52.030 14.324,52.258 14.913,52.258 C15.502,52.258 16.056,52.030 16.472,51.616 L40.741,27.479 C42.586,25.643 44.742,24.202 47.148,23.195 L55.076,19.879 C55.076,19.879 57.373,18.884 57.659,18.722 C58.120,18.462 58.599,18.083 59.122,17.563 C61.652,15.046 62.205,11.262 60.718,8.197 ZM50.211,20.399 C50.031,20.900 49.556,21.212 49.051,21.212 C48.912,21.212 48.771,21.188 48.633,21.139 L42.569,18.973 C42.262,18.864 42.010,18.636 41.871,18.342 C41.731,18.048 41.715,17.710 41.826,17.404 L43.291,13.345 C43.521,12.707 44.228,12.375 44.869,12.605 L50.933,14.771 C51.241,14.881 51.492,15.108 51.632,15.402 C51.771,15.696 51.788,16.034 51.677,16.340 L50.211,20.399 ZM45.196,15.329 L44.564,17.079 L48.306,18.415 L48.938,16.665 L45.196,15.329 ZM15.086,51.226 C14.372,51.226 13.793,50.650 13.793,49.940 C13.793,49.230 14.372,48.654 15.086,48.654 C15.801,48.654 16.380,49.230 16.380,49.940 C16.380,50.650 15.801,51.226 15.086,51.226 Z" class="cls-1"/>
</svg>
